# xmcd
#
# Track frame offsets:
#	150
#	10442
#	21180
#	35437
#	48700
#	61697
#	72400
#	85455
#	98572
#	112395
#	128940
#	141267
#	157342
#	170952
#	183125
#	200327
#	211532
#	223075
#
# Disc length: 3175 seconds
#
# Revision: 0
# Processed by: cddbd v1.5.1PL0 Copyright (c) Steve Scherf et al.
# Submitted via: audiograbber 1.83.01
#
DISCID=120c6512
DTITLE=Various Artist - All American Country
DYEAR=1900
DGENRE=Country
TTITLE0=Johnny Cash - A Thing Called Love
TTITLE1=Sandy Posey - Here Comes My Baby Back Again
TTITLE2=Roger Miller - Green Green Grass Of Home
TTITLE3=Faron Young - It's Four In The Morning
TTITLE4=Roy Drusky - Crystal Chandeliers
TTITLE5=Leroy Van Dyke - Walk On By
TTITLE6=George Jones - I Love You Because
TTITLE7=Hank Williams Sr. - Jambalaya (On The Bayou)
TTITLE8=Hank Williams Jr. - I Threw Away The Rose
TTITLE9=Kathy Mattea - Love At The Five And Dime
TTITLE10=Glaser Brothers - Snowbird
TTITLE11=Dave Dudley - Me And Bobby McGee
TTITLE12=Jerry Lee Lewis - Release Me
TTITLE13=Carl Perkins - Ruby Don't Take Your Love To Town
TTITLE14=CW McCall - Convoy
TTITLE15=Johnny Rodriguez - Pass Me By
TTITLE16=Eddy Arnold - Make The World Go Away (-75)
TTITLE17=Tom T Hall - Homecoming
EXTD=
EXTT0=
EXTT1=
EXTT2=
EXTT3=
EXTT4=
EXTT5=
EXTT6=
EXTT7=
EXTT8=
EXTT9=
EXTT10=
EXTT11=
EXTT12=
EXTT13=
EXTT14=
EXTT15=
EXTT16=
EXTT17=
PLAYORDER=
